<?xml version="1.0" encoding="UTF-8"?>
<svg width="700pt" height="700pt" version="1.1" viewBox="0 0 700 700" xmlns="http://www.w3.org/2000/svg" xmlns:xlink="http://www.w3.org/1999/xlink">
 <defs>
  <symbol id="t" overflow="visible">
   <path d="m0.29688-0.015625c-0.023437 0.011719-0.042969 0.015625-0.0625 0.015625h-0.046875c-0.054688 0-0.09375-0.0078125-0.125-0.03125-0.03125-0.03125-0.046875-0.070312-0.046875-0.125 0-0.050781 0.015625-0.09375 0.046875-0.125s0.070312-0.046875 0.125-0.046875c0.019531 0 0.035156 0.007813 0.046875 0.015625 0.019531 0 0.039063 0.007812 0.0625 0.015625v0.0625c-0.023437-0.007813-0.042969-0.015625-0.0625-0.015625-0.011719-0.007812-0.027344-0.015625-0.046875-0.015625-0.023438 0-0.042969 0.011719-0.0625 0.03125-0.011719 0.023437-0.015625 0.046875-0.015625 0.078125s0.003906 0.058594 0.015625 0.078125c0.019531 0.023438 0.039062 0.03125 0.0625 0.03125h0.046875c0.019531-0.0078125 0.039063-0.019531 0.0625-0.03125z"/>
  </symbol>
  <symbol id="a" overflow="visible">
   <path d="m0.20312-0.17188h-0.015625c0-0.007813-0.007812-0.015625-0.015625-0.015625-0.023437 0-0.039063 0.011719-0.046875 0.03125-0.011719 0.011719-0.015625 0.027344-0.015625 0.046875v0.10938h-0.078125v-0.23438h0.078125v0.046875c0.007813-0.019531 0.019531-0.035156 0.03125-0.046875 0.007813-0.007813 0.023437-0.015625 0.046875-0.015625h0.015625z"/>
  </symbol>
  <symbol id="d" overflow="visible">
   <path d="m0.26562-0.125v0.03125h-0.17188c0 0.023438 0.0039062 0.039062 0.015625 0.046875h0.046875 0.046875c0.019531-0.0078125 0.039063-0.019531 0.0625-0.03125v0.0625c-0.023437 0.011719-0.042969 0.015625-0.0625 0.015625h-0.046875c-0.042969 0-0.078125-0.0078125-0.10938-0.03125-0.023438-0.019531-0.03125-0.046875-0.03125-0.078125 0-0.039063 0.0078125-0.070313 0.03125-0.09375 0.03125-0.03125 0.0625-0.046875 0.09375-0.046875 0.039063 0 0.070313 0.015625 0.09375 0.046875 0.019531 0.023437 0.03125 0.046875 0.03125 0.078125zm-0.078125-0.015625c0-0.019531-0.007812-0.03125-0.015625-0.03125 0-0.007813-0.011719-0.015625-0.03125-0.015625-0.011719 0-0.023437 0.007812-0.03125 0.015625-0.011719 0-0.015625 0.011719-0.015625 0.03125z"/>
  </symbol>
  <symbol id="f" overflow="visible">
   <path d="m0.14062-0.10938c-0.011719 0-0.023437 0.007813-0.03125 0.015625-0.011719 0-0.015625 0.0078125-0.015625 0.015625v0.03125h0.03125c0.019531 0 0.035156-0.0039062 0.046875-0.015625 0.007813-0.0078125 0.015625-0.019531 0.015625-0.03125v-0.015625zm0.10938-0.03125v0.14062h-0.0625v-0.03125c-0.011719 0.011719-0.027344 0.023438-0.046875 0.03125h-0.046875c-0.023438 0-0.042969-0.0039062-0.0625-0.015625-0.011719-0.0078125-0.015625-0.03125-0.015625-0.0625 0-0.019531 0.0078125-0.035156 0.03125-0.046875 0.019531-0.007812 0.050781-0.015625 0.09375-0.015625h0.046875v-0.015625c0-0.007812-0.007812-0.015625-0.015625-0.015625-0.011719-0.007813-0.027344-0.015625-0.046875-0.015625h-0.0625c-0.011719 0-0.015625 0.007812-0.015625 0.015625v-0.0625h0.03125c0.019531-0.007813 0.039063-0.015625 0.0625-0.015625 0.039063 0 0.066406 0.011719 0.078125 0.03125 0.019531 0.023438 0.03125 0.046875 0.03125 0.078125z"/>
  </symbol>
  <symbol id="c" overflow="visible">
   <path d="m0.125-0.29688v0.0625h0.0625v0.046875h-0.0625v0.10938 0.03125h0.015625 0.046875v0.046875h-0.0625c-0.03125 0-0.054688-0.0039062-0.0625-0.015625-0.011719-0.019531-0.015625-0.039062-0.015625-0.0625v-0.10938h-0.046875v-0.046875h0.046875v-0.0625z"/>
  </symbol>
  <symbol id="k" overflow="visible">
   <path d="m0.1875-0.20312v-0.125h0.078125v0.32812h-0.078125v-0.03125c0 0.011719-0.011719 0.023438-0.03125 0.03125h-0.03125c-0.03125 0-0.058594-0.0078125-0.078125-0.03125-0.023438-0.019531-0.03125-0.046875-0.03125-0.078125 0-0.039063 0.0078125-0.070313 0.03125-0.09375 0.019531-0.03125 0.046875-0.046875 0.078125-0.046875 0.007812 0 0.019531 0.007812 0.03125 0.015625 0.019531 0.011719 0.03125 0.023437 0.03125 0.03125zm-0.046875 0.15625c0.019531 0 0.03125-0.0039062 0.03125-0.015625 0.007813-0.0078125 0.015625-0.023438 0.015625-0.046875 0-0.019531-0.007812-0.035156-0.015625-0.046875 0-0.019531-0.011719-0.03125-0.03125-0.03125-0.011719 0-0.023437 0.011719-0.03125 0.03125-0.011719 0.011719-0.015625 0.027344-0.015625 0.046875 0 0.023438 0.0039062 0.039062 0.015625 0.046875 0.007813 0.011719 0.019531 0.015625 0.03125 0.015625z"/>
  </symbol>
  <symbol id="j" overflow="visible">
   <path d="m0.15625-0.046875c0.019531 0 0.03125-0.0039062 0.03125-0.015625 0.007812-0.0078125 0.015625-0.023438 0.015625-0.046875 0-0.019531-0.007813-0.035156-0.015625-0.046875 0-0.019531-0.011719-0.03125-0.03125-0.03125-0.011719 0-0.023438 0.011719-0.03125 0.03125-0.011719 0.011719-0.015625 0.027344-0.015625 0.046875 0 0.011719 0.003906 0.027344 0.015625 0.046875 0.007812 0.011719 0.019531 0.015625 0.03125 0.015625zm-0.046875-0.15625 0.03125-0.03125c0.019531-0.007813 0.035156-0.015625 0.046875-0.015625 0.03125 0 0.054688 0.015625 0.078125 0.046875 0.019531 0.023437 0.03125 0.054687 0.03125 0.09375 0 0.03125-0.011719 0.058594-0.03125 0.078125-0.023437 0.023438-0.046875 0.03125-0.078125 0.03125h-0.046875c-0.011719-0.0078125-0.023437-0.019531-0.03125-0.03125v0.03125h-0.078125v-0.32812h0.078125z"/>
  </symbol>
  <symbol id="i" overflow="visible">
   <path d="m0-0.23438h0.078125l0.0625 0.15625 0.046875-0.15625h0.09375l-0.10938 0.25c-0.011719 0.03125-0.023437 0.050781-0.03125 0.0625-0.011719 0.0078125-0.027344 0.015625-0.046875 0.015625h-0.046875v-0.046875h0.015625c0.019531 0 0.03125-0.0078125 0.03125-0.015625 0 0 0.0039062-0.0078125 0.015625-0.015625v-0.015625z"/>
  </symbol>
  <symbol id="e" overflow="visible">
   <path d="m0.10938-0.03125v0.125h-0.078125v-0.32812h0.078125v0.03125l0.03125-0.03125c0.019531-0.007813 0.035156-0.015625 0.046875-0.015625 0.03125 0 0.054688 0.015625 0.078125 0.046875 0.019531 0.023437 0.03125 0.054687 0.03125 0.09375 0 0.03125-0.011719 0.058594-0.03125 0.078125-0.023437 0.023438-0.046875 0.03125-0.078125 0.03125h-0.046875c-0.011719-0.0078125-0.023437-0.019531-0.03125-0.03125zm0.046875-0.15625c-0.011719 0-0.023438 0.011719-0.03125 0.03125-0.011719 0.011719-0.015625 0.027344-0.015625 0.046875 0 0.011719 0.003906 0.027344 0.015625 0.046875 0.007812 0.011719 0.019531 0.015625 0.03125 0.015625 0.019531 0 0.03125-0.0039062 0.03125-0.015625 0.007812-0.0078125 0.015625-0.023438 0.015625-0.046875 0-0.019531-0.007813-0.035156-0.015625-0.046875 0-0.019531-0.011719-0.03125-0.03125-0.03125z"/>
  </symbol>
  <symbol id="b" overflow="visible">
   <path d="m0.14062-0.1875c-0.011719 0-0.023437 0.007812-0.03125 0.015625-0.011719 0.011719-0.015625 0.03125-0.015625 0.0625 0 0.023438 0.0039062 0.039062 0.015625 0.046875 0.007813 0.011719 0.019531 0.015625 0.03125 0.015625 0.019531 0 0.035156-0.0039062 0.046875-0.015625 0.007812-0.0078125 0.015625-0.023438 0.015625-0.046875 0-0.03125-0.007813-0.050781-0.015625-0.0625-0.011719-0.007813-0.027344-0.015625-0.046875-0.015625zm0-0.0625c0.039063 0 0.070313 0.015625 0.09375 0.046875 0.03125 0.023437 0.046875 0.054687 0.046875 0.09375 0 0.03125-0.015625 0.058594-0.046875 0.078125-0.023437 0.023438-0.054687 0.03125-0.09375 0.03125-0.03125 0-0.0625-0.0078125-0.09375-0.03125-0.023438-0.019531-0.03125-0.046875-0.03125-0.078125 0-0.039063 0.0078125-0.070313 0.03125-0.09375 0.03125-0.03125 0.0625-0.046875 0.09375-0.046875z"/>
  </symbol>
  <symbol id="h" overflow="visible">
   <path d="m0.23438-0.23438v0.0625h-0.046875c0-0.007813-0.011719-0.015625-0.03125-0.015625-0.011719 0-0.027344 0.011719-0.046875 0.03125-0.011719 0.011719-0.015625 0.027344-0.015625 0.046875 0 0.011719 0.0039062 0.027344 0.015625 0.046875 0.019531 0.011719 0.035156 0.015625 0.046875 0.015625h0.046875c0.007813-0.0078125 0.019531-0.015625 0.03125-0.015625v0.0625h-0.046875-0.03125c-0.042969 0-0.078125-0.0078125-0.10938-0.03125-0.023438-0.019531-0.03125-0.046875-0.03125-0.078125 0-0.039063 0.0078125-0.070313 0.03125-0.09375 0.03125-0.03125 0.066406-0.046875 0.10938-0.046875 0.007812 0 0.019531 0.007812 0.03125 0.015625h0.046875z"/>
  </symbol>
  <symbol id="g" overflow="visible">
   <path d="m0.28125-0.14062v0.14062h-0.09375v-0.10938-0.03125-0.03125h-0.015625c0-0.007813-0.007813-0.015625-0.015625-0.015625-0.011719 0-0.023438 0.011719-0.03125 0.03125-0.011719 0.011719-0.015625 0.027344-0.015625 0.046875v0.10938h-0.078125v-0.23438h0.078125v0.03125l0.03125-0.03125c0.019531-0.007813 0.035156-0.015625 0.046875-0.015625 0.03125 0 0.050781 0.011719 0.0625 0.03125 0.019531 0.023438 0.03125 0.046875 0.03125 0.078125z"/>
  </symbol>
  <symbol id="s" overflow="visible">
   <path d="m0.21875-0.23438v0.0625c-0.023438-0.007813-0.042969-0.015625-0.0625-0.015625h-0.03125-0.03125v0.015625 0.03125h0.03125 0.015625c0.03125 0 0.050781 0.007813 0.0625 0.015625 0.019531 0.011719 0.03125 0.03125 0.03125 0.0625 0 0.023438-0.011719 0.039062-0.03125 0.046875-0.011719 0.011719-0.039063 0.015625-0.078125 0.015625h-0.0625-0.03125v-0.0625c0.0078125 0.011719 0.019531 0.015625 0.03125 0.015625h0.0625 0.015625c0.007813 0 0.015625-0.0039062 0.015625-0.015625 0-0.0078125-0.007812-0.015625-0.015625-0.015625 0-0.0078125-0.007813-0.015625-0.015625-0.015625h-0.015625c-0.03125 0-0.058594-0.0039062-0.078125-0.015625-0.011719-0.019531-0.015625-0.039063-0.015625-0.0625 0-0.019531 0.0078125-0.035156 0.03125-0.046875 0.019531-0.019531 0.046875-0.03125 0.078125-0.03125 0.007812 0 0.019531 0.007812 0.03125 0.015625h0.0625z"/>
  </symbol>
  <symbol id="r" overflow="visible">
   <path d="m0.1875-0.32812v0.046875h-0.046875s-0.007813 0.007812-0.015625 0.015625v0.015625 0.015625h0.0625v0.046875h-0.0625v0.1875h-0.078125v-0.1875h-0.046875v-0.046875h0.046875v-0.015625c0-0.03125 0.0039062-0.050781 0.015625-0.0625 0.019531-0.007812 0.046875-0.015625 0.078125-0.015625z"/>
  </symbol>
  <symbol id="q" overflow="visible">
   <path d="m0.25-0.1875c0.007812-0.019531 0.019531-0.035156 0.03125-0.046875 0.019531-0.007813 0.035156-0.015625 0.046875-0.015625 0.03125 0 0.050781 0.011719 0.0625 0.03125 0.019531 0.023438 0.03125 0.046875 0.03125 0.078125v0.14062h-0.078125v-0.125-0.015625c0-0.007813-0.007812-0.019531-0.015625-0.03125 0-0.007813-0.007813-0.015625-0.015625-0.015625-0.011719 0-0.023438 0.011719-0.03125 0.03125-0.011719 0.011719-0.015625 0.027344-0.015625 0.046875v0.10938h-0.078125v-0.125c0-0.019531-0.007812-0.035156-0.015625-0.046875 0-0.007813-0.007813-0.015625-0.015625-0.015625-0.011719 0-0.023438 0.011719-0.03125 0.03125-0.011719 0.011719-0.015625 0.027344-0.015625 0.046875v0.10938h-0.078125v-0.23438h0.078125v0.03125l0.03125-0.03125c0.007813-0.007813 0.023437-0.015625 0.046875-0.015625 0.007812 0 0.019531 0.007812 0.03125 0.015625 0.019531 0.011719 0.03125 0.027344 0.03125 0.046875z"/>
  </symbol>
  <symbol id="p" overflow="visible">
   <path d="m0.28125-0.14062v0.14062h-0.09375v-0.10938-0.03125-0.03125h-0.015625c0-0.007813-0.007813-0.015625-0.015625-0.015625-0.011719 0-0.023438 0.011719-0.03125 0.03125-0.011719 0.011719-0.015625 0.027344-0.015625 0.046875v0.10938h-0.078125v-0.32812h0.078125v0.125l0.03125-0.03125c0.019531-0.007813 0.035156-0.015625 0.046875-0.015625 0.03125 0 0.050781 0.011719 0.0625 0.03125 0.019531 0.023438 0.03125 0.046875 0.03125 0.078125z"/>
  </symbol>
  <symbol id="o" overflow="visible">
   <path d="m0.046875-0.3125h0.078125l0.125 0.21875v-0.21875h0.078125v0.3125h-0.09375l-0.125-0.21875v0.21875h-0.0625z"/>
  </symbol>
  <symbol id="n" overflow="visible">
   <path d="m0.03125-0.09375v-0.14062h0.078125v0.015625 0.0625 0.03125 0.046875 0.015625c0.007813 0 0.015625 0.0078125 0.015625 0.015625h0.015625c0.019531 0 0.03125-0.0039062 0.03125-0.015625 0.007813-0.019531 0.015625-0.039062 0.015625-0.0625v-0.10938h0.078125v0.23438h-0.078125v-0.03125c-0.011719 0.011719-0.023438 0.023438-0.03125 0.03125h-0.046875c-0.023438 0-0.042969-0.0039062-0.0625-0.015625-0.011719-0.019531-0.015625-0.046875-0.015625-0.078125z"/>
  </symbol>
  <symbol id="m" overflow="visible">
   <path d="m0.046875-0.3125h0.125c0.039063 0 0.070313 0.011719 0.09375 0.03125 0.019531 0.011719 0.03125 0.039062 0.03125 0.078125 0 0.03125-0.011719 0.058594-0.03125 0.078125-0.023437 0.011719-0.054687 0.015625-0.09375 0.015625h-0.046875v0.10938h-0.078125zm0.078125 0.0625v0.078125h0.046875 0.03125c0.007813-0.007813 0.015625-0.019531 0.015625-0.03125 0-0.019531-0.007812-0.03125-0.015625-0.03125-0.011719-0.007813-0.023437-0.015625-0.03125-0.015625z"/>
  </symbol>
  <symbol id="l" overflow="visible">
   <path d="m0.03125-0.23438h0.078125v0.23438c0 0.03125-0.011719 0.050781-0.03125 0.0625-0.011719 0.019531-0.03125 0.03125-0.0625 0.03125h-0.03125v-0.046875h0.015625c0.0078125 0 0.015625-0.0078125 0.015625-0.015625 0.0078125 0 0.015625-0.011719 0.015625-0.03125zm0-0.09375h0.078125v0.0625h-0.078125z"/>
  </symbol>
 </defs>
 <g>
  <path d="m419.71 119.05c0 7.4258 6.2539 13.5 13.914 13.5h13.137c7.6602 0 13.914-6.0742 13.914-13.5v-96.941c0-7.4258-6.2539-13.5-13.914-13.5h-13.137c-7.6602 0-13.914 6.0742-13.914 13.5v35.281h-145.88v52.633h145.88zm30.551 172.7h10.949c4.7812 0 8.7031 3.9219 8.7031 8.7031v41.949c0 4.7891-3.9219 8.7031-8.7031 8.7031h-35.695c-3.0078 0-5.582-1.4922-7.082-4.0938-1.5078-2.6016-1.5078-5.5742-0.007813-8.1758l24.742-42.98c1.5-2.6016 4.082-4.1016 7.0898-4.1016zm-126.87-88.309h37.055c4.2305 0 7.6836 3.4648 7.6836 7.6836v37.055c0 4.2305-3.4531 7.6836-7.6836 7.6836h-37.055c-4.2227 0-7.6758-3.4531-7.6758-7.6836v-37.055c0-4.2227 3.4531-7.6836 7.6758-7.6836zm5.375 82.949 36.926 25.098 49.891-88.461c2.1797-3.8867 7.2969-5.0312 11.098-2.7305l20.598 12.477c3.8086 2.3008 4.9375 7.2695 2.7305 11.105l-60.617 105.3c-7.3594 12.148-17.973 14.113-28.656 6.8594l-54.57-36.332c-3.6953-2.4648-4.6445-7.5391-2.1445-11.227l13.508-19.938c1.25-1.8516 2.9883-2.9883 5.1797-3.4102 2.1875-0.42188 4.2227 0.007812 6.0547 1.2656zm-99.602-82.949h37.055c4.2227 0 7.6836 3.4648 7.6836 7.6836v37.055c0 4.2305-3.4648 7.6836-7.6836 7.6836h-37.055c-4.2227 0-7.6836-3.4531-7.6836-7.6836v-37.055c0-4.2227 3.4648-7.6836 7.6836-7.6836zm0 176.62h37.055c4.2227 0 7.6836 3.4648 7.6836 7.6836v37.055c0 4.2227-3.4648 7.6836-7.6836 7.6836h-37.055c-4.2227 0-7.6836-3.4648-7.6836-7.6836v-37.055c0-4.2227 3.4648-7.6836 7.6836-7.6836zm195.91 0h37.055c4.2305 0 7.6836 3.4648 7.6836 7.6836v37.055c0 4.2227-3.4531 7.6836-7.6836 7.6836h-37.055c-4.2227 0-7.6836-3.4648-7.6836-7.6836v-37.055c0-4.2227 3.4648-7.6836 7.6836-7.6836zm-101.69 0h37.055c4.2305 0 7.6836 3.4648 7.6836 7.6836v37.055c0 4.2227-3.4531 7.6836-7.6836 7.6836h-37.055c-4.2227 0-7.6758-3.4648-7.6758-7.6836v-37.055c0-4.2227 3.4531-7.6836 7.6758-7.6836zm-94.227-88.309h37.055c4.2227 0 7.6836 3.4648 7.6836 7.6836v37.055c0 4.2227-3.4648 7.6836-7.6836 7.6836h-37.055c-4.2227 0-7.6836-3.4648-7.6836-7.6836v-37.055c0-4.2227 3.4648-7.6836 7.6836-7.6836zm284.88-234.36h-28.699v52.633h28.699c12.965 0 23.426 10.449 23.426 23.418v350.51c0 12.965-10.461 23.418-23.426 23.418h-336.69c-12.965 0-23.426-10.449-23.426-23.418v-350.51c0-12.965 10.461-23.418 23.426-23.418h30.844v9.0273c0 7.4258 6.2617 13.5 13.914 13.5h13.137c7.6523 0 13.914-6.0742 13.914-13.5v-96.941c0-7.4258-6.2617-13.5-13.914-13.5h-13.137c-7.6523 0-13.914 6.0742-13.914 13.5v35.281h-30.844c-41.734 0-76.047 34.316-76.047 76.047v350.51c0 41.734 34.316 76.047 76.047 76.047h336.69c41.734 0 76.047-34.316 76.047-76.047v-350.51c0-41.734-34.316-76.047-76.047-76.047z"/>
  <use x="70" y="561.292969" xlink:href="#t"/>
  <use x="70.316406" y="561.292969" xlink:href="#a"/>
  <use x="70.527344" y="561.292969" xlink:href="#d"/>
  <use x="70.820312" y="561.292969" xlink:href="#f"/>
  <use x="71.113281" y="561.292969" xlink:href="#c"/>
  <use x="71.316406" y="561.292969" xlink:href="#d"/>
  <use x="71.609375" y="561.292969" xlink:href="#k"/>
  <use x="72.066406" y="561.292969" xlink:href="#j"/>
  <use x="72.375" y="561.292969" xlink:href="#i"/>
  <use x="72.808594" y="561.292969" xlink:href="#e"/>
  <use x="73.117188" y="561.292969" xlink:href="#b"/>
  <use x="73.410156" y="561.292969" xlink:href="#e"/>
  <use x="73.71875" y="561.292969" xlink:href="#h"/>
  <use x="73.976562" y="561.292969" xlink:href="#b"/>
  <use x="74.269531" y="561.292969" xlink:href="#a"/>
  <use x="74.484375" y="561.292969" xlink:href="#g"/>
  <use x="74.789062" y="561.292969" xlink:href="#f"/>
  <use x="75.082031" y="561.292969" xlink:href="#a"/>
  <use x="75.292969" y="561.292969" xlink:href="#c"/>
  <use x="75.5" y="561.292969" xlink:href="#s"/>
  <use x="70" y="561.722656" xlink:href="#r"/>
  <use x="70.1875" y="561.722656" xlink:href="#a"/>
  <use x="70.398438" y="561.722656" xlink:href="#b"/>
  <use x="70.695312" y="561.722656" xlink:href="#q"/>
  <use x="71.292969" y="561.722656" xlink:href="#c"/>
  <use x="71.5" y="561.722656" xlink:href="#p"/>
  <use x="71.808594" y="561.722656" xlink:href="#d"/>
  <use x="72.25" y="561.722656" xlink:href="#o"/>
  <use x="72.609375" y="561.722656" xlink:href="#b"/>
  <use x="72.90625" y="561.722656" xlink:href="#n"/>
  <use x="73.210938" y="561.722656" xlink:href="#g"/>
  <use x="73.667969" y="561.722656" xlink:href="#m"/>
  <use x="73.984375" y="561.722656" xlink:href="#a"/>
  <use x="74.195312" y="561.722656" xlink:href="#b"/>
  <use x="74.492188" y="561.722656" xlink:href="#l"/>
  <use x="74.640625" y="561.722656" xlink:href="#d"/>
  <use x="74.933594" y="561.722656" xlink:href="#h"/>
  <use x="75.1875" y="561.722656" xlink:href="#c"/>
 </g>
</svg>
